<svg width="15" height="15" viewBox="0 0 15 15" fill="none" xmlns="http://www.w3.org/2000/svg">
<path d="M6.66667 9.16667V5.70833L5.33333 7.04167L4.16667 5.83333L7.5 2.5L10.8333 5.83333L9.66667 7.04167L8.33333 5.70833V9.16667H6.66667ZM1.66667 15C1.20833 15 0.815972 14.8368 0.489583 14.5104C0.163194 14.184 0 13.7917 0 13.3333V1.66667C0 1.20833 0.163194 0.815972 0.489583 0.489583C0.815972 0.163194 1.20833 0 1.66667 0H13.3333C13.7917 0 14.184 0.163194 14.5104 0.489583C14.8368 0.815972 15 1.20833 15 1.66667V13.3333C15 13.7917 14.8368 14.184 14.5104 14.5104C14.184 14.8368 13.7917 15 13.3333 15H1.66667ZM1.66667 13.3333H13.3333V10.8333H10.8333C10.4167 11.3611 9.92014 11.7708 9.34375 12.0625C8.76736 12.3542 8.15278 12.5 7.5 12.5C6.84722 12.5 6.23264 12.3542 5.65625 12.0625C5.07986 11.7708 4.58333 11.3611 4.16667 10.8333H1.66667V13.3333ZM7.5 10.8333C8.02778 10.8333 8.50694 10.6806 8.9375 10.375C9.36806 10.0694 9.66667 9.66667 9.83333 9.16667H13.3333V1.66667H1.66667V9.16667H5.16667C5.33333 9.66667 5.63194 10.0694 6.0625 10.375C6.49306 10.6806 6.97222 10.8333 7.5 10.8333ZM1.66667 13.3333H4.16667C4.58333 13.3333 5.07986 13.3333 5.65625 13.3333C6.23264 13.3333 6.84722 13.3333 7.5 13.3333C8.15278 13.3333 8.76736 13.3333 9.34375 13.3333C9.92014 13.3333 10.4167 13.3333 10.8333 13.3333H13.3333H1.66667Z" fill="#B01B1C"/>
</svg>
