<svg width="15" height="18" viewBox="0 0 15 18" fill="none" xmlns="http://www.w3.org/2000/svg">
<path d="M0 12.7895V3.78947C0 2.95263 0.214844 2.28553 0.644531 1.78816C1.07422 1.29079 1.64062 0.911842 2.34375 0.651316C3.04688 0.390789 3.84766 0.217105 4.74609 0.130263C5.64453 0.0434211 6.5625 0 7.5 0C8.53125 0 9.50391 0.0434211 10.418 0.130263C11.332 0.217105 12.1289 0.390789 12.8086 0.651316C13.4883 0.911842 14.0234 1.29079 14.4141 1.78816C14.8047 2.28553 15 2.95263 15 3.78947V12.7895C15 13.7211 14.6836 14.5066 14.0508 15.1461C13.418 15.7855 12.6406 16.1053 11.7188 16.1053L13.125 17.5263V18H11.25L9.375 16.1053H5.625L3.75 18H1.875V17.5263L3.28125 16.1053C2.35938 16.1053 1.58203 15.7855 0.949219 15.1461C0.316406 14.5066 0 13.7211 0 12.7895ZM7.5 1.89474C5.84375 1.89474 4.63281 1.99342 3.86719 2.19079C3.10156 2.38816 2.57812 2.60526 2.29688 2.84211H12.7969C12.5625 2.57368 12.0586 2.34868 11.2852 2.16711C10.5117 1.98553 9.25 1.89474 7.5 1.89474ZM1.875 7.57895H6.5625V4.73684H1.875V7.57895ZM11.7188 9.47368H3.28125C2.875 9.47368 2.53906 9.47368 2.27344 9.47368C2.00781 9.47368 1.875 9.47368 1.875 9.47368H13.125C13.125 9.47368 12.9922 9.47368 12.7266 9.47368C12.4609 9.47368 12.125 9.47368 11.7188 9.47368ZM8.4375 7.57895H13.125V4.73684H8.4375V7.57895ZM4.21875 13.2632C4.625 13.2632 4.96094 13.1289 5.22656 12.8605C5.49219 12.5921 5.625 12.2526 5.625 11.8421C5.625 11.4316 5.49219 11.0921 5.22656 10.8237C4.96094 10.5553 4.625 10.4211 4.21875 10.4211C3.8125 10.4211 3.47656 10.5553 3.21094 10.8237C2.94531 11.0921 2.8125 11.4316 2.8125 11.8421C2.8125 12.2526 2.94531 12.5921 3.21094 12.8605C3.47656 13.1289 3.8125 13.2632 4.21875 13.2632ZM10.7812 13.2632C11.1875 13.2632 11.5234 13.1289 11.7891 12.8605C12.0547 12.5921 12.1875 12.2526 12.1875 11.8421C12.1875 11.4316 12.0547 11.0921 11.7891 10.8237C11.5234 10.5553 11.1875 10.4211 10.7812 10.4211C10.375 10.4211 10.0391 10.5553 9.77344 10.8237C9.50781 11.0921 9.375 11.4316 9.375 11.8421C9.375 12.2526 9.50781 12.5921 9.77344 12.8605C10.0391 13.1289 10.375 13.2632 10.7812 13.2632ZM3.28125 14.2105H11.7188C12.125 14.2105 12.4609 14.0763 12.7266 13.8079C12.9922 13.5395 13.125 13.2 13.125 12.7895V9.47368H1.875V12.7895C1.875 13.2 2.00781 13.5395 2.27344 13.8079C2.53906 14.0763 2.875 14.2105 3.28125 14.2105ZM7.5 2.84211C9.25 2.84211 10.5117 2.84211 11.2852 2.84211C12.0586 2.84211 12.5625 2.84211 12.7969 2.84211H2.29688C2.57812 2.84211 3.10156 2.84211 3.86719 2.84211C4.63281 2.84211 5.84375 2.84211 7.5 2.84211Z" fill="#B01B1C"/>
</svg>
