<svg width="14" height="16" viewBox="0 0 14 16" fill="none" xmlns="http://www.w3.org/2000/svg">
<path d="M0 11.25V3.33333C0 2.59722 0.190972 2.01042 0.572917 1.57292C0.954861 1.13542 1.45833 0.802083 2.08333 0.572917C2.70833 0.34375 3.42014 0.190972 4.21875 0.114583C5.01736 0.0381944 5.83333 0 6.66667 0C7.58333 0 8.44792 0.0381944 9.26042 0.114583C10.0729 0.190972 10.7812 0.34375 11.3854 0.572917C11.9896 0.802083 12.4653 1.13542 12.8125 1.57292C13.1597 2.01042 13.3333 2.59722 13.3333 3.33333V11.25C13.3333 12.0694 13.0521 12.7604 12.4896 13.3229C11.9271 13.8854 11.2361 14.1667 10.4167 14.1667L11.6667 15.4167V15.8333H10L8.33333 14.1667H5L3.33333 15.8333H1.66667V15.4167L2.91667 14.1667C2.09722 14.1667 1.40625 13.8854 0.84375 13.3229C0.28125 12.7604 0 12.0694 0 11.25ZM6.66667 1.66667C5.19444 1.66667 4.11806 1.75347 3.4375 1.92708C2.75694 2.10069 2.29167 2.29167 2.04167 2.5H11.375C11.1667 2.26389 10.7188 2.06597 10.0312 1.90625C9.34375 1.74653 8.22222 1.66667 6.66667 1.66667ZM1.66667 6.66667H5.83333V4.16667H1.66667V6.66667ZM10.4167 8.33333H2.91667C2.55556 8.33333 2.25694 8.33333 2.02083 8.33333C1.78472 8.33333 1.66667 8.33333 1.66667 8.33333H11.6667C11.6667 8.33333 11.5486 8.33333 11.3125 8.33333C11.0764 8.33333 10.7778 8.33333 10.4167 8.33333ZM7.5 6.66667H11.6667V4.16667H7.5V6.66667ZM3.75 11.6667C4.11111 11.6667 4.40972 11.5486 4.64583 11.3125C4.88194 11.0764 5 10.7778 5 10.4167C5 10.0556 4.88194 9.75694 4.64583 9.52083C4.40972 9.28472 4.11111 9.16667 3.75 9.16667C3.38889 9.16667 3.09028 9.28472 2.85417 9.52083C2.61806 9.75694 2.5 10.0556 2.5 10.4167C2.5 10.7778 2.61806 11.0764 2.85417 11.3125C3.09028 11.5486 3.38889 11.6667 3.75 11.6667ZM9.58333 11.6667C9.94444 11.6667 10.2431 11.5486 10.4792 11.3125C10.7153 11.0764 10.8333 10.7778 10.8333 10.4167C10.8333 10.0556 10.7153 9.75694 10.4792 9.52083C10.2431 9.28472 9.94444 9.16667 9.58333 9.16667C9.22222 9.16667 8.92361 9.28472 8.6875 9.52083C8.45139 9.75694 8.33333 10.0556 8.33333 10.4167C8.33333 10.7778 8.45139 11.0764 8.6875 11.3125C8.92361 11.5486 9.22222 11.6667 9.58333 11.6667ZM2.91667 12.5H10.4167C10.7778 12.5 11.0764 12.3819 11.3125 12.1458C11.5486 11.9097 11.6667 11.6111 11.6667 11.25V8.33333H1.66667V11.25C1.66667 11.6111 1.78472 11.9097 2.02083 12.1458C2.25694 12.3819 2.55556 12.5 2.91667 12.5ZM6.66667 2.5C8.22222 2.5 9.34375 2.5 10.0312 2.5C10.7188 2.5 11.1667 2.5 11.375 2.5H2.04167C2.29167 2.5 2.75694 2.5 3.4375 2.5C4.11806 2.5 5.19444 2.5 6.66667 2.5Z" fill="white" fill-opacity="0.8"/>
</svg>
