<svg width="152" height="19" viewBox="0 0 152 19" fill="none" xmlns="http://www.w3.org/2000/svg">
<path d="M3.15905e-06 18.5498V1.0498H3.35L10.8 13.3998H9.025L16.35 1.0498H19.675L19.725 18.5498H15.925L15.9 6.8748H16.6L10.75 16.6998H8.925L2.95 6.8748H3.8V18.5498H3.15905e-06ZM30.277 18.7498C28.7436 18.7498 27.3936 18.4498 26.227 17.8498C25.077 17.2498 24.1853 16.4331 23.552 15.3998C22.9186 14.3498 22.602 13.1581 22.602 11.8248C22.602 10.4748 22.9103 9.28314 23.527 8.2498C24.1603 7.1998 25.0186 6.38314 26.102 5.7998C27.1853 5.1998 28.4103 4.8998 29.777 4.8998C31.0936 4.8998 32.277 5.18314 33.327 5.7498C34.3936 6.2998 35.2353 7.0998 35.852 8.1498C36.4686 9.18314 36.777 10.4248 36.777 11.8748C36.777 12.0248 36.7686 12.1998 36.752 12.3998C36.7353 12.5831 36.7186 12.7581 36.702 12.9248H25.777V10.6498H34.652L33.152 11.3248C33.152 10.6248 33.0103 10.0165 32.727 9.4998C32.4436 8.98314 32.052 8.58314 31.552 8.2998C31.052 7.9998 30.4686 7.8498 29.802 7.8498C29.1353 7.8498 28.5436 7.9998 28.027 8.2998C27.527 8.58314 27.1353 8.99147 26.852 9.5248C26.5686 10.0415 26.427 10.6581 26.427 11.3748V11.9748C26.427 12.7081 26.5853 13.3581 26.902 13.9248C27.2353 14.4748 27.6936 14.8998 28.277 15.1998C28.877 15.4831 29.577 15.6248 30.377 15.6248C31.0936 15.6248 31.7186 15.5165 32.252 15.2998C32.802 15.0831 33.302 14.7581 33.752 14.3248L35.827 16.5748C35.2103 17.2748 34.4353 17.8165 33.502 18.1998C32.5686 18.5665 31.4936 18.7498 30.277 18.7498ZM39.3734 18.5498V5.0998H43.0984V8.8998L42.5734 7.7998C42.9734 6.8498 43.6151 6.13314 44.4984 5.6498C45.3818 5.1498 46.4568 4.8998 47.7234 4.8998V8.4998C47.5568 8.48314 47.4068 8.4748 47.2734 8.4748C47.1401 8.45814 46.9984 8.4498 46.8484 8.4498C45.7818 8.4498 44.9151 8.75814 44.2484 9.3748C43.5984 9.9748 43.2734 10.9165 43.2734 12.1998V18.5498H39.3734ZM56.4447 18.7498C54.9947 18.7498 53.7031 18.4581 52.5697 17.8748C51.4364 17.2748 50.5447 16.4498 49.8947 15.3998C49.2614 14.3498 48.9447 13.1581 48.9447 11.8248C48.9447 10.4748 49.2614 9.28314 49.8947 8.2498C50.5447 7.1998 51.4364 6.38314 52.5697 5.7998C53.7031 5.1998 54.9947 4.8998 56.4447 4.8998C57.8614 4.8998 59.0947 5.1998 60.1447 5.7998C61.1947 6.38314 61.9697 7.2248 62.4697 8.3248L59.4447 9.9498C59.0947 9.31647 58.6531 8.8498 58.1197 8.5498C57.6031 8.2498 57.0364 8.0998 56.4197 8.0998C55.7531 8.0998 55.1531 8.2498 54.6197 8.5498C54.0864 8.8498 53.6614 9.2748 53.3447 9.8248C53.0447 10.3748 52.8947 11.0415 52.8947 11.8248C52.8947 12.6081 53.0447 13.2748 53.3447 13.8248C53.6614 14.3748 54.0864 14.7998 54.6197 15.0998C55.1531 15.3998 55.7531 15.5498 56.4197 15.5498C57.0364 15.5498 57.6031 15.4081 58.1197 15.1248C58.6531 14.8248 59.0947 14.3498 59.4447 13.6998L62.4697 15.3498C61.9697 16.4331 61.1947 17.2748 60.1447 17.8748C59.0947 18.4581 57.8614 18.7498 56.4447 18.7498ZM64.642 18.5498V-0.000196397H68.542V8.8248L67.667 7.6998C68.1503 6.7998 68.842 6.10814 69.742 5.6248C70.642 5.14147 71.667 4.8998 72.817 4.8998C73.8837 4.8998 74.8337 5.11647 75.667 5.5498C76.517 5.96647 77.1837 6.61647 77.667 7.4998C78.1503 8.36647 78.392 9.48314 78.392 10.8498V18.5498H74.492V11.4498C74.492 10.3665 74.2503 9.56647 73.767 9.0498C73.3003 8.53314 72.6337 8.2748 71.767 8.2748C71.1503 8.2748 70.592 8.40814 70.092 8.6748C69.6087 8.9248 69.2253 9.31647 68.942 9.8498C68.6753 10.3831 68.542 11.0665 68.542 11.8998V18.5498H64.642ZM85.8272 18.5498V4.3498H80.2272V1.0498H95.4772V4.3498H89.8772V18.5498H85.8272ZM97.0883 18.5498V5.0998H100.813V8.8998L100.288 7.7998C100.688 6.8498 101.33 6.13314 102.213 5.6498C103.097 5.1498 104.172 4.8998 105.438 4.8998V8.4998C105.272 8.48314 105.122 8.4748 104.988 8.4748C104.855 8.45814 104.713 8.4498 104.563 8.4498C103.497 8.4498 102.63 8.75814 101.963 9.3748C101.313 9.9748 100.988 10.9165 100.988 12.1998V18.5498H97.0883ZM115.128 18.5498V15.9248L114.878 15.3498V10.6498C114.878 9.81647 114.62 9.16647 114.103 8.6998C113.603 8.23314 112.828 7.9998 111.778 7.9998C111.062 7.9998 110.353 8.11647 109.653 8.3498C108.97 8.56647 108.387 8.86647 107.903 9.2498L106.503 6.5248C107.237 6.00814 108.12 5.60814 109.153 5.3248C110.187 5.04147 111.237 4.8998 112.303 4.8998C114.353 4.8998 115.945 5.38314 117.078 6.3498C118.212 7.31647 118.778 8.8248 118.778 10.8748V18.5498H115.128ZM111.028 18.7498C109.978 18.7498 109.078 18.5748 108.328 18.2248C107.578 17.8581 107.003 17.3665 106.603 16.7498C106.203 16.1331 106.003 15.4415 106.003 14.6748C106.003 13.8748 106.195 13.1748 106.578 12.5748C106.978 11.9748 107.603 11.5081 108.453 11.1748C109.303 10.8248 110.412 10.6498 111.778 10.6498H115.353V12.9248H112.203C111.287 12.9248 110.653 13.0748 110.303 13.3748C109.97 13.6748 109.803 14.0498 109.803 14.4998C109.803 14.9998 109.995 15.3998 110.378 15.6998C110.778 15.9831 111.32 16.1248 112.003 16.1248C112.653 16.1248 113.237 15.9748 113.753 15.6748C114.27 15.3581 114.645 14.8998 114.878 14.2998L115.478 16.0998C115.195 16.9665 114.678 17.6248 113.928 18.0748C113.178 18.5248 112.212 18.7498 111.028 18.7498ZM128.906 18.7498C127.456 18.7498 126.164 18.4581 125.031 17.8748C123.897 17.2748 123.006 16.4498 122.356 15.3998C121.722 14.3498 121.406 13.1581 121.406 11.8248C121.406 10.4748 121.722 9.28314 122.356 8.2498C123.006 7.1998 123.897 6.38314 125.031 5.7998C126.164 5.1998 127.456 4.8998 128.906 4.8998C130.322 4.8998 131.556 5.1998 132.606 5.7998C133.656 6.38314 134.431 7.2248 134.931 8.3248L131.906 9.9498C131.556 9.31647 131.114 8.8498 130.581 8.5498C130.064 8.2498 129.497 8.0998 128.881 8.0998C128.214 8.0998 127.614 8.2498 127.081 8.5498C126.547 8.8498 126.122 9.2748 125.806 9.8248C125.506 10.3748 125.356 11.0415 125.356 11.8248C125.356 12.6081 125.506 13.2748 125.806 13.8248C126.122 14.3748 126.547 14.7998 127.081 15.0998C127.614 15.3998 128.214 15.5498 128.881 15.5498C129.497 15.5498 130.064 15.4081 130.581 15.1248C131.114 14.8248 131.556 14.3498 131.906 13.6998L134.931 15.3498C134.431 16.4331 133.656 17.2748 132.606 17.8748C131.556 18.4581 130.322 18.7498 128.906 18.7498ZM140.328 15.7998L140.428 11.0498L146.703 5.0998H151.353L145.328 11.2248L143.303 12.8748L140.328 15.7998ZM137.103 18.5498V-0.000196397H141.003V18.5498H137.103ZM147.128 18.5498L142.578 12.8998L145.028 9.8748L151.853 18.5498H147.128Z" fill="url(#paint0_linear_40_358)"/>
<defs>
<linearGradient id="paint0_linear_40_358" x1="19.315" y1="-11.5726" x2="151.398" y2="28.9378" gradientUnits="userSpaceOnUse">
<stop offset="0.730769" stop-color="#FFF5F5"/>
<stop offset="1" stop-color="#8F8F8F"/>
</linearGradient>
</defs>
</svg>
