<svg width="243" height="30" viewBox="0 0 243 30" fill="none" xmlns="http://www.w3.org/2000/svg">
<path d="M-7.15256e-06 29.6799V1.67993H5.35999L17.28 21.4399H14.44L26.16 1.67993H31.48L31.56 29.6799H25.48L25.44 10.9999H26.56L17.2 26.7199H14.28L4.71999 10.9999H6.07999V29.6799H-7.15256e-06ZM48.4431 29.9999C45.9898 29.9999 43.8298 29.5199 41.9631 28.5599C40.1231 27.5999 38.6965 26.2933 37.6831 24.6399C36.6698 22.9599 36.1631 21.0533 36.1631 18.9199C36.1631 16.7599 36.6565 14.8533 37.6431 13.1999C38.6565 11.5199 40.0298 10.2133 41.7631 9.27993C43.4965 8.31993 45.4565 7.83993 47.6431 7.83993C49.7498 7.83993 51.6431 8.29326 53.3231 9.19993C55.0298 10.0799 56.3765 11.3599 57.3631 13.0399C58.3498 14.6933 58.8431 16.6799 58.8431 18.9999C58.8431 19.2399 58.8298 19.5199 58.8031 19.8399C58.7765 20.1333 58.7498 20.4133 58.7231 20.6799H41.2431V17.0399H55.4431L53.0431 18.1199C53.0431 16.9999 52.8165 16.0266 52.3631 15.1999C51.9098 14.3733 51.2831 13.7333 50.4831 13.2799C49.6831 12.7999 48.7498 12.5599 47.6831 12.5599C46.6165 12.5599 45.6698 12.7999 44.8431 13.2799C44.0431 13.7333 43.4165 14.3866 42.9631 15.2399C42.5098 16.0666 42.2831 17.0533 42.2831 18.1999V19.1599C42.2831 20.3333 42.5365 21.3733 43.0431 22.2799C43.5765 23.1599 44.3098 23.8399 45.2431 24.3199C46.2031 24.7733 47.3231 24.9999 48.6031 24.9999C49.7498 24.9999 50.7498 24.8266 51.6031 24.4799C52.4831 24.1333 53.2831 23.6133 54.0031 22.9199L57.3231 26.5199C56.3365 27.6399 55.0965 28.5066 53.6031 29.1199C52.1098 29.7066 50.3898 29.9999 48.4431 29.9999ZM62.9975 29.6799V8.15993H68.9575V14.2399L68.1175 12.4799C68.7575 10.9599 69.7842 9.81326 71.1975 9.03993C72.6108 8.23993 74.3308 7.83993 76.3575 7.83993V13.5999C76.0908 13.5733 75.8508 13.5599 75.6375 13.5599C75.4242 13.5333 75.1975 13.5199 74.9575 13.5199C73.2508 13.5199 71.8642 14.0133 70.7975 14.9999C69.7575 15.9599 69.2375 17.4666 69.2375 19.5199V29.6799H62.9975ZM90.3116 29.9999C87.9916 29.9999 85.9249 29.5333 84.1116 28.5999C82.2982 27.6399 80.8716 26.3199 79.8316 24.6399C78.8182 22.9599 78.3116 21.0533 78.3116 18.9199C78.3116 16.7599 78.8182 14.8533 79.8316 13.1999C80.8716 11.5199 82.2982 10.2133 84.1116 9.27993C85.9249 8.31993 87.9916 7.83993 90.3116 7.83993C92.5782 7.83993 94.5516 8.31993 96.2316 9.27993C97.9116 10.2133 99.1516 11.5599 99.9516 13.3199L95.1116 15.9199C94.5516 14.9066 93.8449 14.1599 92.9916 13.6799C92.1649 13.1999 91.2582 12.9599 90.2716 12.9599C89.2049 12.9599 88.2449 13.1999 87.3916 13.6799C86.5382 14.1599 85.8582 14.8399 85.3516 15.7199C84.8716 16.5999 84.6316 17.6666 84.6316 18.9199C84.6316 20.1733 84.8716 21.2399 85.3516 22.1199C85.8582 22.9999 86.5382 23.6799 87.3916 24.1599C88.2449 24.6399 89.2049 24.8799 90.2716 24.8799C91.2582 24.8799 92.1649 24.6533 92.9916 24.1999C93.8449 23.7199 94.5516 22.9599 95.1116 21.9199L99.9516 24.5599C99.1516 26.2933 97.9116 27.6399 96.2316 28.5999C94.5516 29.5333 92.5782 29.9999 90.3116 29.9999ZM103.427 29.6799V-7.00951e-05H109.667V14.1199L108.267 12.3199C109.041 10.8799 110.147 9.77326 111.587 8.99993C113.027 8.2266 114.667 7.83993 116.507 7.83993C118.214 7.83993 119.734 8.1866 121.067 8.87993C122.427 9.5466 123.494 10.5866 124.267 11.9999C125.041 13.3866 125.427 15.1733 125.427 17.3599V29.6799H119.187V18.3199C119.187 16.5866 118.801 15.3066 118.027 14.4799C117.281 13.6533 116.214 13.2399 114.827 13.2399C113.841 13.2399 112.947 13.4533 112.147 13.8799C111.374 14.2799 110.761 14.9066 110.307 15.7599C109.881 16.6133 109.667 17.7066 109.667 19.0399V29.6799H103.427ZM137.323 29.6799V6.95993H128.363V1.67993H152.763V6.95993H143.803V29.6799H137.323ZM155.341 29.6799V8.15993H161.301V14.2399L160.461 12.4799C161.101 10.9599 162.128 9.81326 163.541 9.03993C164.955 8.23993 166.675 7.83993 168.701 7.83993V13.5999C168.435 13.5733 168.195 13.5599 167.981 13.5599C167.768 13.5333 167.541 13.5199 167.301 13.5199C165.595 13.5199 164.208 14.0133 163.141 14.9999C162.101 15.9599 161.581 17.4666 161.581 19.5199V29.6799H155.341ZM184.205 29.6799V25.4799L183.805 24.5599V17.0399C183.805 15.7066 183.392 14.6666 182.565 13.9199C181.765 13.1733 180.525 12.7999 178.845 12.7999C177.699 12.7999 176.565 12.9866 175.445 13.3599C174.352 13.7066 173.419 14.1866 172.645 14.7999L170.405 10.4399C171.579 9.61326 172.992 8.97326 174.645 8.51993C176.299 8.0666 177.979 7.83993 179.685 7.83993C182.965 7.83993 185.512 8.61326 187.325 10.1599C189.139 11.7066 190.045 14.1199 190.045 17.3999V29.6799H184.205ZM177.645 29.9999C175.965 29.9999 174.525 29.7199 173.325 29.1599C172.125 28.5733 171.205 27.7866 170.565 26.7999C169.925 25.8133 169.605 24.7066 169.605 23.4799C169.605 22.1999 169.912 21.0799 170.525 20.1199C171.165 19.1599 172.165 18.4133 173.525 17.8799C174.885 17.3199 176.659 17.0399 178.845 17.0399H184.565V20.6799H179.525C178.059 20.6799 177.045 20.9199 176.485 21.3999C175.952 21.8799 175.685 22.4799 175.685 23.1999C175.685 23.9999 175.992 24.6399 176.605 25.1199C177.245 25.5733 178.112 25.7999 179.205 25.7999C180.245 25.7999 181.179 25.5599 182.005 25.0799C182.832 24.5733 183.432 23.8399 183.805 22.8799L184.765 25.7599C184.312 27.1466 183.485 28.1999 182.285 28.9199C181.085 29.6399 179.539 29.9999 177.645 29.9999ZM206.249 29.9999C203.929 29.9999 201.862 29.5333 200.049 28.5999C198.236 27.6399 196.809 26.3199 195.769 24.6399C194.756 22.9599 194.249 21.0533 194.249 18.9199C194.249 16.7599 194.756 14.8533 195.769 13.1999C196.809 11.5199 198.236 10.2133 200.049 9.27993C201.862 8.31993 203.929 7.83993 206.249 7.83993C208.516 7.83993 210.489 8.31993 212.169 9.27993C213.849 10.2133 215.089 11.5599 215.889 13.3199L211.049 15.9199C210.489 14.9066 209.782 14.1599 208.929 13.6799C208.102 13.1999 207.196 12.9599 206.209 12.9599C205.142 12.9599 204.182 13.1999 203.329 13.6799C202.476 14.1599 201.796 14.8399 201.289 15.7199C200.809 16.5999 200.569 17.6666 200.569 18.9199C200.569 20.1733 200.809 21.2399 201.289 22.1199C201.796 22.9999 202.476 23.6799 203.329 24.1599C204.182 24.6399 205.142 24.8799 206.209 24.8799C207.196 24.8799 208.102 24.6533 208.929 24.1999C209.782 23.7199 210.489 22.9599 211.049 21.9199L215.889 24.5599C215.089 26.2933 213.849 27.6399 212.169 28.5999C210.489 29.5333 208.516 29.9999 206.249 29.9999ZM224.525 25.2799L224.685 17.6799L234.725 8.15993H242.165L232.525 17.9599L229.285 20.5999L224.525 25.2799ZM219.365 29.6799V-7.00951e-05H225.605V29.6799H219.365ZM235.405 29.6799L228.125 20.6399L232.045 15.7999L242.965 29.6799H235.405Z" fill="url(#paint0_linear_58_1900)"/>
<defs>
<linearGradient id="paint0_linear_58_1900" x1="88.6878" y1="-22.8201" x2="272.688" y2="46.1799" gradientUnits="userSpaceOnUse">
<stop offset="0.00717878" stop-color="#BF0102"/>
<stop offset="0.381756" stop-color="#420304"/>
</linearGradient>
</defs>
</svg>
